<svg width="16" height="16" viewBox="0 0 16 16" fill="none" xmlns="http://www.w3.org/2000/svg">
<g clip-path="url(#clip0_196_880)">
<path d="M3.00273 0.725391C2.49648 0.922266 2.06836 1.18477 1.64023 1.61289C1.21211 2.03789 0.949609 2.46914 0.752734 2.97227C0.562109 3.45977 0.433984 4.01914 0.396484 4.83789C0.358984 5.65664 0.349609 5.91914 0.349609 8.00664C0.349609 10.0941 0.358984 10.3566 0.396484 11.1754C0.433984 11.9941 0.565234 12.5535 0.752734 13.041C0.949609 13.5473 1.21211 13.9754 1.64023 14.4035C2.06836 14.8316 2.49648 15.0941 3.00273 15.291C3.49023 15.4816 4.04961 15.6098 4.86836 15.6473C5.68711 15.6848 5.94961 15.6941 8.03711 15.6941C10.1246 15.6941 10.3871 15.6848 11.2059 15.6473C12.0246 15.6098 12.584 15.4785 13.0715 15.291C13.5777 15.0941 14.0059 14.8316 14.434 14.4035C14.8621 13.9754 15.1246 13.5473 15.3215 13.041C15.5121 12.5535 15.6402 11.9941 15.6777 11.1754C15.7152 10.3566 15.7246 10.0941 15.7246 8.00664C15.7246 5.91914 15.7152 5.65664 15.6777 4.83789C15.6402 4.01914 15.509 3.45977 15.3215 2.97227C15.1246 2.46914 14.8621 2.03789 14.4371 1.61289C14.009 1.18477 13.5809 0.922266 13.0746 0.725391C12.5871 0.534766 12.0277 0.406641 11.209 0.369141C10.3902 0.331641 10.1277 0.322266 8.04023 0.322266C5.95273 0.322266 5.69023 0.331641 4.87148 0.369141C4.04961 0.403516 3.49023 0.534766 3.00273 0.725391ZM11.1434 1.75039C11.8934 1.78477 12.2996 1.90977 12.5715 2.01602C12.9309 2.15664 13.1871 2.32227 13.4559 2.59102C13.7246 2.85977 13.8902 3.11602 14.0309 3.47539C14.1371 3.74727 14.2621 4.15352 14.2965 4.90352C14.334 5.71289 14.3402 5.95664 14.3402 8.00977C14.3402 10.0629 14.3309 10.3066 14.2965 11.116C14.2621 11.866 14.1371 12.2723 14.0309 12.5441C13.8902 12.9035 13.7246 13.1598 13.4559 13.4285C13.1871 13.6973 12.9309 13.8629 12.5715 14.0035C12.2996 14.1098 11.8934 14.2348 11.1434 14.2691C10.334 14.3066 10.0902 14.3129 8.03711 14.3129C5.98398 14.3129 5.74023 14.3035 4.93086 14.2691C4.18086 14.2348 3.77461 14.1098 3.50273 14.0035C3.14336 13.8629 2.88711 13.6973 2.61836 13.4285C2.34961 13.1598 2.18398 12.9035 2.04336 12.5441C1.93711 12.2723 1.81211 11.866 1.77773 11.116C1.74023 10.3066 1.73398 10.0629 1.73398 8.00977C1.73398 5.95664 1.74336 5.71289 1.77773 4.90352C1.81211 4.15352 1.93711 3.74727 2.04336 3.47539C2.18398 3.11602 2.34961 2.85977 2.61836 2.59102C2.88711 2.32227 3.14336 2.15664 3.50273 2.01602C3.77461 1.90977 4.18086 1.78477 4.93086 1.75039C5.74023 1.71289 5.98398 1.70664 8.03711 1.70664C10.0902 1.70664 10.334 1.71289 11.1434 1.75039Z" fill="url(#paint0_radial_196_880)"/>
<path d="M4.08984 8.00937C4.08984 10.1906 5.85859 11.9563 8.03672 11.9563C10.2148 11.9563 11.9836 10.1875 11.9836 8.00937C11.9836 5.83125 10.218 4.0625 8.03672 4.0625C5.85547 4.0625 4.08984 5.82812 4.08984 8.00937ZM10.5992 8.00937C10.5992 9.425 9.45234 10.5719 8.03672 10.5719C6.62109 10.5719 5.47422 9.425 5.47422 8.00937C5.47422 6.59375 6.62109 5.44688 8.03672 5.44688C9.45234 5.44688 10.5992 6.59375 10.5992 8.00937Z" fill="url(#paint1_radial_196_880)"/>
<path d="M12.1436 4.82812C12.6527 4.82812 13.0654 4.41539 13.0654 3.90625C13.0654 3.39711 12.6527 2.98438 12.1436 2.98438C11.6344 2.98438 11.2217 3.39711 11.2217 3.90625C11.2217 4.41539 11.6344 4.82812 12.1436 4.82812Z" fill="#654C9F"/>
</g>
<defs>
<radialGradient id="paint0_radial_196_880" cx="0" cy="0" r="1" gradientUnits="userSpaceOnUse" gradientTransform="translate(0.629358 14.2868) rotate(-3.00009) scale(22.2286 18.8941)">
<stop stop-color="#FED576"/>
<stop offset="0.2634" stop-color="#F47133"/>
<stop offset="0.6091" stop-color="#BC3081"/>
<stop offset="1" stop-color="#4C63D2"/>
</radialGradient>
<radialGradient id="paint1_radial_196_880" cx="0" cy="0" r="1" gradientUnits="userSpaceOnUse" gradientTransform="translate(4.23301 11.2324) rotate(-3.00009) scale(11.4147 9.70235)">
<stop stop-color="#FED576"/>
<stop offset="0.2634" stop-color="#F47133"/>
<stop offset="0.6091" stop-color="#BC3081"/>
<stop offset="1" stop-color="#4C63D2"/>
</radialGradient>
<clipPath id="clip0_196_880">
<rect width="16" height="16" fill="white"/>
</clipPath>
</defs>
</svg>
