<svg width="169" height="41" viewBox="0 0 169 41" fill="none" xmlns="http://www.w3.org/2000/svg">
<path fill-rule="evenodd" clip-rule="evenodd" d="M30.603 15.8031C30.603 16.1344 30.5937 16.4594 30.5687 16.7844C30.3324 20.3562 28.8093 23.7212 26.2816 26.2559C23.7538 28.7905 20.3929 30.3228 16.8218 30.5687C16.1829 29.2011 15.8532 27.7095 15.8562 26.2V26.175C18.5969 26.1674 21.2231 25.0751 23.1608 23.1368C25.0985 21.1985 26.19 18.572 26.1968 15.8312V15.8062C26.1965 13.9487 25.6971 12.1253 24.751 10.5268C23.8049 8.92825 22.4467 7.61322 20.8185 6.71919C19.1902 5.82516 17.3517 5.38495 15.4951 5.44459C13.6385 5.50423 11.832 6.06153 10.2645 7.05822C8.69703 8.05492 7.42605 9.4544 6.58447 11.1104C5.7429 12.7663 5.36164 14.618 5.48054 16.4717C5.59945 18.3255 6.21416 20.1132 7.26041 21.6481C8.30666 23.183 9.74602 24.4086 11.428 25.1969C11.4062 25.5281 11.3937 25.8594 11.3937 26.1969C11.393 27.5121 11.5675 28.8215 11.9124 30.0906C9.24569 29.3672 6.83447 27.9123 4.95126 25.8904C3.06805 23.8684 1.78793 21.3601 1.25556 18.6487C0.723198 15.9374 0.959814 13.1312 1.93867 10.5473C2.91753 7.96341 4.5996 5.70481 6.7948 4.02676C8.98999 2.34871 11.6108 1.31812 14.361 1.05145C17.1112 0.784785 19.8811 1.29268 22.3578 2.51773C24.8345 3.74278 26.9192 5.63615 28.3762 7.98386C29.8332 10.3316 30.6046 13.04 30.603 15.8031Z" fill="url(#paint0_linear_94_9195)"/>
<path fill-rule="evenodd" clip-rule="evenodd" d="M41 26.1969C41 30.123 39.4404 33.8882 36.6643 36.6643C33.8882 39.4404 30.123 41 26.1969 41C22.2709 41 18.5057 39.4404 15.7295 36.6643C12.9534 33.8882 11.3938 30.123 11.3938 26.1969C11.3938 25.8594 11.4063 25.5282 11.4282 25.1969C11.6709 21.6196 13.2036 18.2519 15.7415 15.7191C18.2795 13.1863 21.6503 11.6605 25.2282 11.425C25.8684 12.7968 26.1991 14.2925 26.1969 15.8063V15.8313C23.4562 15.8389 20.83 16.9312 18.8923 18.8695C16.9546 20.8078 15.8631 23.4343 15.8563 26.175V26.2C15.8564 28.0603 16.357 29.8862 17.3055 31.4865C18.254 33.0867 19.6156 34.4023 21.2474 35.2953C22.8793 36.1883 24.7214 36.6259 26.5805 36.5621C28.4396 36.4983 30.2474 35.9356 31.8142 34.9329C33.381 33.9301 34.6493 32.5243 35.4859 30.8629C36.3226 29.2014 36.6968 27.3455 36.5695 25.4896C36.4421 23.6337 35.8178 21.8463 34.7621 20.3147C33.7063 18.7831 32.2579 17.5637 30.5688 16.7844C30.5938 16.4594 30.6032 16.1344 30.6032 15.8032C30.6038 14.488 30.4294 13.1786 30.0844 11.9094C33.2195 12.7633 35.9866 14.6247 37.9592 17.2066C39.9318 19.7886 41.0003 22.9477 41 26.1969Z" fill="url(#paint1_linear_94_9195)"/>
<path d="M49 20.9428C49 19.2646 49.2543 17.8153 49.7628 16.5948C50.2714 15.3488 50.9706 14.319 51.8605 13.5054C52.7759 12.6917 53.8311 12.0942 55.0262 11.7128C56.2467 11.3059 57.5562 11.1025 58.9547 11.1025C59.4632 11.1025 59.9591 11.1534 60.4422 11.2551C60.9253 11.3313 61.3194 11.4331 61.6246 11.5602V5.38141C61.8788 5.30512 62.2857 5.22884 62.8451 5.15256C63.4044 5.05085 63.9766 5 64.5614 5C65.1208 5 65.6166 5.03814 66.0489 5.11442C66.5066 5.1907 66.888 5.34327 67.1931 5.57211C67.4982 5.80095 67.7271 6.11879 67.8796 6.52562C68.0322 6.90703 68.1085 7.41557 68.1085 8.05125V26.1299C68.1085 27.325 67.5491 28.2785 66.4303 28.9905C65.6929 29.4736 64.7394 29.8931 63.5697 30.2491C62.4001 30.6305 61.0524 30.8212 59.5268 30.8212C57.8741 30.8212 56.3866 30.5924 55.0644 30.1347C53.7676 29.677 52.6615 29.0159 51.7461 28.1514C50.8562 27.2868 50.1696 26.2571 49.6865 25.062C49.2288 23.8415 49 22.4684 49 20.9428ZM59.8319 16.1752C58.4589 16.1752 57.4037 16.5693 56.6663 17.3576C55.9289 18.1458 55.5602 19.3409 55.5602 20.9428C55.5602 22.5193 55.9035 23.7143 56.59 24.528C57.2765 25.3162 58.2682 25.7104 59.565 25.7104C60.0226 25.7104 60.4295 25.6468 60.7855 25.5197C61.1669 25.3671 61.4593 25.2018 61.6627 25.0238V16.6329C61.1542 16.3278 60.5439 16.1752 59.8319 16.1752Z" fill="#E44AA1"/>
<path d="M72.149 11.9416C72.4033 11.8653 72.7974 11.789 73.3313 11.7128C73.8907 11.6365 74.4629 11.5983 75.0477 11.5983C75.6071 11.5983 76.1029 11.6365 76.5352 11.7128C76.9928 11.789 77.3743 11.9416 77.6794 12.1704C77.9845 12.3993 78.2133 12.7171 78.3659 13.124C78.5439 13.5054 78.6329 14.0139 78.6329 14.6496V22.8498C78.6329 23.8923 78.8872 24.6424 79.3957 25.1001C79.9043 25.5324 80.6416 25.7485 81.6079 25.7485C82.1927 25.7485 82.6631 25.6977 83.0191 25.5959C83.4005 25.4942 83.6929 25.3925 83.8963 25.2908V11.9416C84.1506 11.8653 84.5447 11.789 85.0787 11.7128C85.6381 11.6365 86.2102 11.5983 86.795 11.5983C87.3544 11.5983 87.8502 11.6365 88.2825 11.7128C88.7402 11.789 89.1216 11.9416 89.4267 12.1704C89.7318 12.3993 89.9607 12.7171 90.1132 13.124C90.2912 13.5054 90.3802 14.0139 90.3802 14.6496V26.2443C90.3802 27.5157 89.8462 28.4692 88.7783 29.1049C87.8884 29.6643 86.8204 30.0838 85.5745 30.3635C84.354 30.6687 83.0191 30.8212 81.5697 30.8212C80.1967 30.8212 78.9253 30.6687 77.7557 30.3635C76.6114 30.0584 75.6198 29.588 74.7807 28.9523C73.9416 28.3166 73.2932 27.503 72.8355 26.5113C72.3778 25.4942 72.149 24.2737 72.149 22.8498V11.9416Z" fill="#E44AA1"/>
<path d="M113.533 20.9428C113.533 22.5193 113.291 23.9305 112.808 25.1764C112.325 26.3969 111.638 27.4267 110.749 28.2658C109.884 29.1049 108.841 29.7406 107.621 30.1728C106.4 30.6051 105.04 30.8212 103.54 30.8212C102.04 30.8212 100.679 30.5924 99.4589 30.1347C98.2384 29.677 97.1832 29.0286 96.2932 28.1895C95.4287 27.325 94.7549 26.2825 94.2717 25.062C93.7886 23.8415 93.5471 22.4684 93.5471 20.9428C93.5471 19.4426 93.7886 18.0822 94.2717 16.8617C94.7549 15.6412 95.4287 14.6114 96.2932 13.7723C97.1832 12.9078 98.2384 12.2467 99.4589 11.789C100.679 11.3313 102.04 11.1025 103.54 11.1025C105.04 11.1025 106.4 11.3441 107.621 11.8272C108.841 12.2849 109.884 12.946 110.749 13.8105C111.638 14.6496 112.325 15.6794 112.808 16.8999C113.291 18.1204 113.533 19.468 113.533 20.9428ZM100.184 20.9428C100.184 22.4938 100.476 23.6889 101.061 24.528C101.671 25.3417 102.51 25.7485 103.578 25.7485C104.646 25.7485 105.46 25.329 106.019 24.4899C106.604 23.6508 106.896 22.4684 106.896 20.9428C106.896 19.4172 106.604 18.2475 106.019 17.4338C105.434 16.5948 104.608 16.1752 103.54 16.1752C102.472 16.1752 101.646 16.5948 101.061 17.4338C100.476 18.2475 100.184 19.4172 100.184 20.9428Z" fill="#E44AA1"/>
<path d="M123.294 30.1728C123.015 30.2237 122.595 30.2872 122.036 30.3635C121.502 30.4652 120.955 30.5161 120.396 30.5161C119.836 30.5161 119.328 30.478 118.87 30.4017C118.438 30.3254 118.069 30.1728 117.764 29.944C117.459 29.7151 117.217 29.41 117.039 29.0286C116.887 28.6218 116.81 28.1005 116.81 27.4648V5.34327C117.09 5.29241 117.497 5.22884 118.031 5.15256C118.59 5.05085 119.15 5 119.709 5C120.269 5 120.764 5.03814 121.197 5.11442C121.654 5.1907 122.036 5.34327 122.341 5.57211C122.646 5.80095 122.875 6.11879 123.027 6.52562C123.205 6.90703 123.294 7.41557 123.294 8.05125V30.1728Z" fill="#3B7BD3"/>
<path d="M146.571 20.9428C146.571 22.5193 146.329 23.9305 145.846 25.1764C145.363 26.3969 144.676 27.4267 143.786 28.2658C142.922 29.1049 141.879 29.7406 140.659 30.1728C139.438 30.6051 138.078 30.8212 136.578 30.8212C135.078 30.8212 133.717 30.5924 132.497 30.1347C131.276 29.677 130.221 29.0286 129.331 28.1895C128.467 27.325 127.793 26.2825 127.31 25.062C126.826 23.8415 126.585 22.4684 126.585 20.9428C126.585 19.4426 126.826 18.0822 127.31 16.8617C127.793 15.6412 128.467 14.6114 129.331 13.7723C130.221 12.9078 131.276 12.2467 132.497 11.789C133.717 11.3313 135.078 11.1025 136.578 11.1025C138.078 11.1025 139.438 11.3441 140.659 11.8272C141.879 12.2849 142.922 12.946 143.786 13.8105C144.676 14.6496 145.363 15.6794 145.846 16.8999C146.329 18.1204 146.571 19.468 146.571 20.9428ZM133.221 20.9428C133.221 22.4938 133.514 23.6889 134.099 24.528C134.709 25.3417 135.548 25.7485 136.616 25.7485C137.684 25.7485 138.498 25.329 139.057 24.4899C139.642 23.6508 139.934 22.4684 139.934 20.9428C139.934 19.4172 139.642 18.2475 139.057 17.4338C138.472 16.5948 137.646 16.1752 136.578 16.1752C135.51 16.1752 134.683 16.5948 134.099 17.4338C133.514 18.2475 133.221 19.4172 133.221 20.9428Z" fill="#3B7BD3"/>
<path d="M158.239 11.1025C159.765 11.1025 161.176 11.3059 162.473 11.7128C163.795 12.0942 164.927 12.6917 165.867 13.5054C166.808 14.319 167.546 15.3488 168.08 16.5948C168.614 17.8153 168.881 19.2773 168.881 20.9809C168.881 22.6083 168.652 24.0322 168.194 25.2527C167.736 26.4732 167.088 27.503 166.249 28.3421C165.41 29.1557 164.393 29.766 163.198 30.1728C162.028 30.5797 160.718 30.7831 159.269 30.7831C158.176 30.7831 157.159 30.6178 156.218 30.2872V36.6186C155.964 36.6949 155.557 36.7712 154.997 36.8474C154.438 36.9491 153.866 37 153.281 37C152.722 37 152.213 36.9619 151.755 36.8856C151.323 36.8093 150.954 36.6567 150.649 36.4279C150.344 36.199 150.115 35.8812 149.963 35.4744C149.81 35.093 149.734 34.5844 149.734 33.9487V15.6412C149.734 14.9547 149.874 14.3953 150.153 13.9631C150.459 13.5308 150.865 13.1367 151.374 12.7807C152.162 12.2721 153.141 11.8653 154.311 11.5602C155.48 11.2551 156.79 11.1025 158.239 11.1025ZM158.316 25.6722C160.935 25.6722 162.244 24.1085 162.244 20.9809C162.244 19.3536 161.913 18.1458 161.252 17.3576C160.617 16.5693 159.689 16.1752 158.468 16.1752C157.985 16.1752 157.553 16.2388 157.171 16.3659C156.79 16.4676 156.459 16.5948 156.18 16.7473V25.1383C156.485 25.2908 156.815 25.418 157.171 25.5197C157.527 25.6214 157.909 25.6722 158.316 25.6722Z" fill="#3B7BD3"/>
<defs>
<linearGradient id="paint0_linear_94_9195" x1="15.7905" y1="0.982304" x2="15.7905" y2="30.5687" gradientUnits="userSpaceOnUse">
<stop offset="0.0470964" stop-color="#F97C85"/>
<stop offset="0.260558" stop-color="#EE7693"/>
<stop offset="1" stop-color="#DA22AC"/>
</linearGradient>
<linearGradient id="paint1_linear_94_9195" x1="26.1969" y1="11.425" x2="26.1969" y2="41" gradientUnits="userSpaceOnUse">
<stop offset="0.0051882" stop-color="#5FD2BD"/>
<stop offset="0.241184" stop-color="#5AA9C1"/>
<stop offset="1" stop-color="#1D50E3"/>
</linearGradient>
</defs>
</svg>
