<svg width="64" height="64" viewBox="0 0 64 64" fill="none" xmlns="http://www.w3.org/2000/svg">
<rect width="64" height="64" rx="32" fill="white"/>
<path fill-rule="evenodd" clip-rule="evenodd" d="M41.603 26.8031C41.603 27.1344 41.5937 27.4594 41.5687 27.7844C41.3324 31.3562 39.8093 34.7212 37.2816 37.2559C34.7538 39.7905 31.3929 41.3228 27.8218 41.5687C27.1829 40.2011 26.8532 38.7095 26.8562 37.2V37.175C29.5969 37.1674 32.2231 36.0751 34.1608 34.1368C36.0985 32.1985 37.19 29.572 37.1968 26.8312V26.8062C37.1965 24.9487 36.6971 23.1253 35.751 21.5268C34.8049 19.9283 33.4467 18.6132 31.8185 17.7192C30.1902 16.8252 28.3517 16.385 26.4951 16.4446C24.6385 16.5042 22.832 17.0615 21.2645 18.0582C19.697 19.0549 18.426 20.4544 17.5845 22.1104C16.7429 23.7663 16.3616 25.618 16.4805 27.4717C16.5995 29.3255 17.2142 31.1132 18.2604 32.6481C19.3067 34.183 20.746 35.4086 22.428 36.1969C22.4062 36.5281 22.3937 36.8594 22.3937 37.1969C22.393 38.5121 22.5675 39.8215 22.9124 41.0906C20.2457 40.3672 17.8345 38.9123 15.9513 36.8904C14.0681 34.8684 12.7879 32.3601 12.2556 29.6487C11.7232 26.9374 11.9598 24.1312 12.9387 21.5473C13.9175 18.9634 15.5996 16.7048 17.7948 15.0268C19.99 13.3487 22.6108 12.3181 25.361 12.0515C28.1112 11.7848 30.8811 12.2927 33.3578 13.5177C35.8345 14.7428 37.9192 16.6361 39.3762 18.9839C40.8332 21.3316 41.6046 24.04 41.603 26.8031Z" fill="url(#paint0_linear_196_860)"/>
<path fill-rule="evenodd" clip-rule="evenodd" d="M51.9999 37.1969C51.9999 41.123 50.4403 44.8882 47.6642 47.6643C44.8881 50.4404 41.1228 52 37.1968 52C33.2708 52 29.5055 50.4404 26.7294 47.6643C23.9533 44.8882 22.3937 41.123 22.3937 37.1969C22.3937 36.8594 22.4062 36.5282 22.4281 36.1969C22.6708 32.6196 24.2035 29.2519 26.7414 26.7191C29.2794 24.1863 32.6502 22.6605 36.2281 22.425C36.8683 23.7968 37.199 25.2925 37.1968 26.8063V26.8313C34.4561 26.8389 31.8299 27.9312 29.8922 29.8695C27.9545 31.8078 26.863 34.4343 26.8562 37.175V37.2C26.8563 39.0603 27.3568 40.8862 28.3054 42.4865C29.2539 44.0867 30.6155 45.4023 32.2473 46.2953C33.8792 47.1883 35.7212 47.6259 37.5804 47.5621C39.4395 47.4983 41.2472 46.9356 42.8141 45.9329C44.3809 44.9301 45.6491 43.5243 46.4858 41.8629C47.3224 40.2014 47.6967 38.3455 47.5694 36.4896C47.442 34.6337 46.8177 32.8463 45.7619 31.3147C44.7062 29.7831 43.2578 28.5637 41.5687 27.7844C41.5937 27.4594 41.6031 27.1344 41.6031 26.8032C41.6037 25.488 41.4292 24.1786 41.0843 22.9094C44.2193 23.7633 46.9865 25.6247 48.9591 28.2066C50.9317 30.7886 52.0002 33.9477 51.9999 37.1969Z" fill="url(#paint1_linear_196_860)"/>
<defs>
<linearGradient id="paint0_linear_196_860" x1="26.7905" y1="11.9823" x2="26.7905" y2="41.5687" gradientUnits="userSpaceOnUse">
<stop offset="0.0470964" stop-color="#F97C85"/>
<stop offset="0.260558" stop-color="#EE7693"/>
<stop offset="1" stop-color="#DA22AC"/>
</linearGradient>
<linearGradient id="paint1_linear_196_860" x1="37.1968" y1="22.425" x2="37.1968" y2="52" gradientUnits="userSpaceOnUse">
<stop offset="0.0051882" stop-color="#5FD2BD"/>
<stop offset="0.241184" stop-color="#5AA9C1"/>
<stop offset="1" stop-color="#1D50E3"/>
</linearGradient>
</defs>
</svg>
