<svg width="472" height="235" viewBox="0 0 472 235" fill="none" xmlns="http://www.w3.org/2000/svg">
<g clip-path="url(#clip0_435_10352)">
<path d="M88.353 169.639C77.1322 162.511 67.4549 153.251 73.0874 148.94C78.725 144.626 95.1526 160.939 102.467 178.854L106.095 184.281C100.586 171.33 99.3681 153.351 104.524 150.52C109.648 147.707 109.59 159.71 108.067 170.567C106.908 178.831 107.684 184.672 108.312 187.599L125.445 213.234C116.767 192.697 114.869 164.316 123.027 159.837C131.157 155.374 131.065 174.42 128.648 191.646C126.823 204.664 128.024 213.898 129.016 218.576L132.432 223.688C131.844 224.52 131.252 225.347 130.656 226.169L110.272 195.671C106.715 194.217 103.025 193.461 99.3388 193.43C90.4117 193.208 80.8508 190.993 84.0641 185.322C86.8526 180.4 97.7021 183.365 106.572 190.134L99.5221 179.587C96.9137 176.759 93.1957 172.715 88.353 169.639Z" fill="#989DCF"/>
<path d="M339.455 0.00012207H132.545C121.751 0.00012207 113 12.0638 113 26.9449V208.056C113 222.937 121.751 235 132.545 235H339.455C350.249 235 359 222.937 359 208.056V26.9449C359.001 12.0638 350.25 0.00012207 339.455 0.00012207Z" fill="#EAEFFF"/>
<path d="M235.859 200.834C281.622 200.834 318.719 163.711 318.719 117.917C318.719 72.1234 281.622 35.0001 235.859 35.0001C190.097 35.0001 152.999 72.1234 152.999 117.917C152.999 163.711 190.097 200.834 235.859 200.834Z" fill="#FDFEFF"/>
<path d="M250.528 147.367L225.139 148.17C218.891 148.36 212.823 146.063 208.265 141.783C203.706 137.502 201.03 131.588 200.823 125.337L199.613 87.4372C199.42 81.1861 201.713 75.1147 205.989 70.5549C210.265 65.995 216.175 63.3191 222.422 63.1142L247.811 62.3107C254.059 62.1205 260.127 64.4175 264.686 68.6978C269.244 72.9781 271.921 78.8922 272.128 85.1429L273.338 123.044C273.53 129.295 271.237 135.366 266.961 139.926C262.685 144.485 256.775 147.161 250.529 147.367L250.528 147.367ZM222.69 71.5093C218.667 71.6414 214.862 73.3646 212.108 76.3008C209.355 79.2371 207.878 83.1467 208.002 87.172L209.212 125.073C209.346 129.098 211.069 132.906 214.005 135.662C216.94 138.418 220.847 139.897 224.87 139.775L250.26 138.972C254.282 138.84 258.088 137.117 260.842 134.181C263.595 131.244 265.072 127.335 264.948 123.309L263.736 85.4089C263.603 81.3836 261.88 77.575 258.944 74.8187C256.009 72.0623 252.101 70.5834 248.078 70.7064L222.69 71.5093Z" fill="#6C0F25"/>
<path d="M292.135 111.015C291.36 108.861 290.258 106.838 288.87 105.017C286.253 101.626 282.979 98.7981 279.244 96.7039C275.54 94.6293 271.449 93.3394 267.226 92.9146C266.282 92.8315 265.335 92.7993 264.387 92.8182C264.038 92.8245 263.685 92.8402 263.333 92.8581L263.098 92.8755C262.945 92.8831 262.788 92.8971 262.635 92.9089C262.455 92.9234 262.275 92.9399 262.091 92.9593C261.595 93.0086 261.101 93.0755 260.609 93.1531C260.462 93.1764 260.319 93.1989 260.169 93.2253C259.997 93.2531 259.821 93.2851 259.648 93.3214C259.297 93.3875 258.948 93.4582 258.603 93.5421C258.256 93.6217 257.907 93.7076 257.562 93.8006C257.421 93.8383 257.281 93.879 257.142 93.9165C256.029 94.2334 254.936 94.6126 253.866 95.0524C253.565 95.1755 253.269 95.3025 252.973 95.4362C252.806 95.508 252.642 95.5839 252.474 95.6641C252.354 95.7197 252.234 95.7746 252.116 95.8323C252.02 95.8783 251.921 95.9245 251.824 95.975C251.653 96.0599 251.481 96.1425 251.314 96.232C251.207 96.2869 251.095 96.3398 250.991 96.3995C250.827 96.4865 250.666 96.5755 250.502 96.6625C250.174 96.8434 249.853 97.0261 249.529 97.2179C249.37 97.3093 249.211 97.4095 249.05 97.5052C248.195 98.0299 247.356 98.5952 246.532 99.2009C246.331 99.3483 246.129 99.498 245.933 99.656C245.879 99.6903 245.829 99.7291 245.782 99.772C245.651 99.8707 245.522 99.9711 245.395 100.077C245.221 100.211 245.049 100.351 244.875 100.491C244.622 100.702 244.366 100.921 244.113 101.141C243.82 101.391 243.53 101.651 243.245 101.919C243.017 102.129 242.788 102.344 242.564 102.563C242.321 102.795 242.084 103.033 241.849 103.272C240.809 104.331 239.826 105.445 238.903 106.608C238.695 106.862 238.496 107.122 238.297 107.387C238.273 107.416 238.255 107.445 238.231 107.474C238.023 107.747 237.818 108.025 237.62 108.305C237.399 108.608 237.191 108.91 236.979 109.221C236.77 109.527 236.563 109.839 236.357 110.156C236.156 110.472 235.953 110.792 235.754 111.113C235.556 111.434 235.363 111.763 235.172 112.094C228.686 100.523 217.635 93.4053 206.451 93.6165L206.431 93.6169C205.941 93.6261 205.442 93.6511 204.95 93.6891C190.419 94.819 179.709 108.059 177.918 118.423C174.203 139.89 194.183 166.349 232.59 184.597C233.516 185.035 234.533 185.248 235.557 185.22C235.807 185.215 236.058 185.199 236.309 185.17C237.548 185.007 238.754 184.649 239.881 184.11C282.36 164.692 299.413 131.87 292.135 111.015Z" fill="#F36861"/>
<path d="M237.225 135.469C238.587 135.187 239.796 134.408 240.615 133.284C241.435 132.16 241.808 130.77 241.66 129.386C241.513 128.002 240.857 126.722 239.819 125.795C238.78 124.868 237.435 124.36 236.044 124.371C234.653 124.382 233.316 124.909 232.292 125.852C231.269 126.794 230.633 128.084 230.507 129.47C230.382 130.857 230.776 132.24 231.614 133.352C232.451 134.464 233.672 135.224 235.039 135.485C235.761 135.623 236.504 135.618 237.225 135.469Z" fill="#6C0F25"/>
<path d="M238.998 146.413L232.102 146.183C231.886 146.176 231.675 146.121 231.483 146.023C231.291 145.925 231.123 145.786 230.991 145.616C230.858 145.445 230.765 145.248 230.718 145.038C230.671 144.827 230.67 144.609 230.717 144.399L233.652 131.097C233.726 130.763 233.914 130.465 234.185 130.255C234.455 130.045 234.79 129.936 235.133 129.947L237.044 130.011C237.386 130.022 237.714 130.153 237.97 130.38C238.226 130.608 238.394 130.918 238.445 131.257L240.497 144.725C240.529 144.938 240.514 145.156 240.453 145.362C240.392 145.569 240.287 145.76 240.144 145.921C240.001 146.082 239.824 146.21 239.626 146.295C239.428 146.38 239.214 146.42 238.998 146.413L238.998 146.413Z" fill="#6C0F25"/>
<path d="M421.426 154.805C417.411 145.746 405.217 146.251 399.28 152.851C393.28 133.399 366.388 146.704 376.874 164.339C381.326 171.332 387.007 177.459 393.642 182.425C407.941 179.762 424.89 169.312 421.426 154.805Z" fill="#F16861"/>
<path d="M398.704 90.7389C397.607 90.2593 396.424 90.008 395.227 90.0003C394.041 89.9931 392.865 90.2319 391.775 90.7016C391.533 90.8096 391.297 90.9305 391.068 91.064C390.983 91.1133 390.899 91.1649 390.816 91.2169L390.761 91.2528C390.725 91.2755 390.688 91.3003 390.653 91.3239C390.611 91.3521 390.569 91.3807 390.527 91.4104C390.413 91.4899 390.301 91.5735 390.191 91.6598C390.158 91.6852 390.126 91.7103 390.093 91.7371C390.055 91.7673 390.016 91.7988 389.979 91.8317C389.902 91.8957 389.826 91.9609 389.753 92.0283C389.68 92.0957 389.605 92.1637 389.533 92.2335L389.446 92.3194C389.216 92.5488 389 92.791 388.797 93.0447C388.741 93.1167 388.685 93.1875 388.631 93.2605C388.6 93.3008 388.57 93.342 388.539 93.3846C388.518 93.4145 388.495 93.4447 388.474 93.4745L388.422 93.5493C388.392 93.5936 388.361 93.6373 388.332 93.6819C388.313 93.7103 388.293 93.7383 388.276 93.7673L388.191 93.8988C388.136 93.9878 388.082 94.0764 388.028 94.1685C388.001 94.2128 387.976 94.2584 387.95 94.3043C387.811 94.5501 387.682 94.8035 387.563 95.0646C387.533 95.1283 387.504 95.1925 387.477 95.2583C387.469 95.274 387.462 95.2904 387.456 95.3072C387.438 95.3499 387.42 95.3919 387.402 95.4353C387.377 95.4918 387.354 95.5497 387.33 95.6079C387.296 95.6944 387.263 95.7831 387.231 95.8712C387.193 95.973 387.157 96.0763 387.123 96.1812C387.096 96.2641 387.069 96.3476 387.044 96.433C387.015 96.5229 386.99 96.6145 386.964 96.7051C386.853 97.1077 386.762 97.5159 386.693 97.928C386.677 98.0179 386.663 98.11 386.65 98.2021L386.646 98.2326C386.632 98.3279 386.619 98.4247 386.608 98.5204C386.595 98.6249 386.585 98.7274 386.575 98.8331C386.565 98.9388 386.557 99.0417 386.549 99.148C386.541 99.2543 386.536 99.3595 386.531 99.4658C386.527 99.572 386.523 99.6792 386.521 99.7868C385.14 98.829 383.526 98.2633 381.85 98.1498C380.174 98.0362 378.498 98.379 377.001 99.1417L376.996 99.1444C376.878 99.2135 376.759 99.2883 376.644 99.3636C375.163 100.46 374.054 101.985 373.467 103.733C372.881 105.48 372.846 107.366 373.366 109.135C375.352 114.929 383.81 118.729 395.668 118.001C395.954 117.982 396.232 117.896 396.478 117.75C396.539 117.715 396.598 117.677 396.655 117.635C396.937 117.427 397.184 117.175 397.386 116.889C405.161 106.327 404.907 95.921 400.313 91.7735C399.833 91.3481 399.29 90.9992 398.704 90.7389ZM395.258 117.845C395.703 117.928 396.163 117.868 396.572 117.674C396.166 117.879 395.703 117.939 395.258 117.845Z" fill="#F16861"/>
</g>
<path d="M6.6266 87.335C6.6474 85.0553 7.22343 82.8155 8.30429 80.8114C9.38517 78.8074 10.9379 77.1001 12.8268 75.839C14.7208 74.5731 16.8926 73.7894 19.1549 73.5557C21.4173 73.322 23.7022 73.6453 25.8126 74.4976C27.3523 71.3444 29.8266 68.7489 32.8946 67.0687C35.9627 65.3884 39.4734 64.7062 42.9432 65.1159C46.413 65.5257 49.671 67.0073 52.2684 69.3565C54.8657 71.7058 56.6746 74.8071 57.4457 78.2332C61.1975 78.4673 64.7109 80.1623 67.2401 82.9584C69.7693 85.7544 71.1153 89.4315 70.9923 93.209C70.8692 96.9866 69.287 100.567 66.5813 103.191C63.8756 105.815 60.2594 107.275 56.5004 107.262H10.2922C7.89033 107.266 5.56284 106.425 3.71358 104.884C1.86431 103.343 0.609993 101.199 0.168289 98.8254C-0.264915 96.4528 0.144409 94.0026 1.32479 91.9025C2.50518 89.8024 4.38164 88.1858 6.6266 87.335Z" fill="#EDF1FF"/>
<path d="M464.16 26.4245C464.135 23.7274 463.454 21.0775 462.175 18.7065C460.896 16.3355 459.059 14.3156 456.825 12.8236C454.584 11.3259 452.014 10.3988 449.338 10.1223C446.661 9.8458 443.958 10.2282 441.461 11.2366C439.64 7.50605 436.712 4.4353 433.082 2.44743C429.453 0.459553 425.299 -0.347603 421.194 0.13717C417.089 0.621943 413.234 2.37479 410.161 5.15419C407.088 7.93359 404.948 11.6028 404.036 15.6562C399.597 15.9331 395.441 17.9385 392.448 21.2465C389.456 24.5545 387.864 28.9048 388.009 33.374C388.155 37.8432 390.027 42.0795 393.228 45.1836C396.429 48.2878 400.707 50.0154 405.154 49.9999H459.823C462.665 50.0049 465.419 49.0094 467.606 47.1862C469.794 45.363 471.278 42.8272 471.801 40.0188C472.313 37.2118 471.829 34.3129 470.433 31.8283C469.036 29.3436 466.816 27.4311 464.16 26.4245Z" fill="#EDF1FF"/>
<defs>
<clipPath id="clip0_435_10352">
<rect width="352" height="235" fill="white" transform="translate(71)"/>
</clipPath>
</defs>
</svg>
